<svg id="logosandtypes_com" xmlns="http://www.w3.org/2000/svg" viewBox="0 0 150 150"><style>.st1{fill:#0585cc}</style><path d="M0 0h150v150H0V0z" fill="none"/><path class="st1" d="M113 101.2c8.2-8.9 12.8-20.7 12.8-32.8 0-27.1-22.3-49-49.9-49-4.1 0-8.2.5-12.1 1.4v-1.4H26.1v112.5h37.7V116c4 1 8.1 1.5 12.2 1.5 1.4 0 2.7-.1 4-.2l7.2 14.6h42L113 101.2zm-24.5 12l-2.8-5.7-6.4.5c-1.1.1-2.2.1-3.3.1h-1.7c-1 0-1.9-.1-2.8-.2h-.2c-1-.1-1.9-.3-2.9-.4h-.1c-18.6-3.6-32.7-19.7-32.7-39s14.1-35.4 32.7-39h.1c1-.2 1.9-.3 2.9-.4h.2c.9-.1 1.9-.2 2.8-.2H76c22.3 0 40.4 17.8 40.4 39.7 0 9.9-3.7 19.4-10.4 26.6l-4.4 4.6 12.1 22.8H93.1l-4.6-9.4z"/><path class="st1" d="M76 47.2c-11.7.2-21 9.9-20.8 21.6.2 11.7 9.9 21 21.6 20.8 11.6-.2 20.8-9.6 20.8-21.2-.2-11.8-9.8-21.3-21.6-21.2"/></svg>